<?xml version="1.0"?>
<svg xmlns="http://www.w3.org/2000/svg" xmlns:xlink="http://www.w3.org/1999/xlink" version="1.1" id="Capa_1" x="0px" y="0px" viewBox="0 0 512.002 512.002" style="enable-background:new 0 0 512.002 512.002;" xml:space="preserve" width="512px" height="512px" class=""><g><g>
	<g>
		<path d="M442.828,183.194c-7.717-10.295-22.32-12.385-32.616-4.669l-31.166,23.36c-0.869,0.653-2.058,0.623-2.894-0.069    l-81.593-67.558c-1.211-1.121-2.475-2.172-3.796-3.143l-1.203-0.995c-2.671-2.212-5.694-3.704-8.84-4.544    c-5.062-1.984-10.495-3.043-16.037-3.043h-90.251c-5.834,0-11.547,1.18-16.834,3.373l1.955,36.328l2.651,49.256l47.423-0.19h0.068    h0.068c27.9,0.014,50.647,22.725,50.707,50.626c0.028,13.551-5.221,26.302-14.784,35.904c-9.55,9.591-22.263,14.893-35.802,14.935    l-67.339,0.262l-46.984,13.321l-2.281,0.641c-16.936,4.81-28.763,20.475-28.763,38.092v107.194    c0,21.905,17.822,39.728,39.729,39.728c21.905,0,39.728-17.822,39.728-39.728v-72.775l75.584-15.983l75.583,15.983v72.775    c0,21.905,17.822,39.728,39.729,39.728c21.905,0,39.728-17.822,39.728-39.728V365.073c-0.01-17.621-11.851-33.284-28.798-38.088    l-51.855-14.702l11.152-108.803l41.338,34.227c9.065,7.506,20.121,11.282,31.201,11.282c10.293,0,20.606-3.26,29.354-9.817    l31.167-23.36C448.454,208.092,450.544,193.491,442.828,183.194z" data-original="#000000" class="active-path" data-old_color="#000000" fill="#A4A6B3"/>
	</g>
</g><g>
	<g>
		<path d="M228.541,0h-17.967c-24.767,0-44.917,20.15-44.917,44.917v17.966c0,24.768,20.15,44.917,44.917,44.917h17.967    c24.767,0,44.917-20.15,44.917-44.917V44.917C273.458,20.15,253.308,0,228.541,0z" data-original="#000000" class="active-path" data-old_color="#000000" fill="#A4A6B3"/>
	</g>
</g><g>
	<g>
		<path d="M209.747,241.241l-68.79,0.275c-0.011,0-0.021,0-0.031,0c-1.097,0-2.137-0.244-3.078-0.67    c-2.471-1.117-4.24-3.534-4.396-6.412l-3.8-70.592l-31.658,46.031c-1.235,1.796-2.333,3.656-3.292,5.567    c-6.715,13.376-6.657,29.229,0.458,42.722c7.587,14.389,21.936,23.677,37.989,24.819c0.038,0.003,0.075,0.009,0.113,0.011    c1.073,0.074,76.506-0.173,76.506-0.173c5.566-0.012,10.782-2.185,14.7-6.121c3.918-3.934,6.069-9.159,6.057-14.712    C230.501,250.551,221.18,241.247,209.747,241.241z" data-original="#000000" class="active-path" data-old_color="#000000" fill="#A4A6B3"/>
	</g>
</g></g> </svg>
