<?xml version="1.0"?>
<svg xmlns="http://www.w3.org/2000/svg" id="Capa_1" enable-background="new 0 0 512 512" height="512px" viewBox="0 0 512 512" width="512px"><g><g><g><path d="m312.04 294.75c-4.167 0-8.011-2.702-9.405-6.632-1.375-3.874-.213-8.326 2.936-10.99 3.282-2.777 8.094-3.123 11.746-.864 3.501 2.165 5.338 6.399 4.533 10.436-.92 4.616-5.103 8.05-9.81 8.05z" data-original="#000000" class="active-path" data-old_color="#000000" fill="#A4A6B3"/><path d="m509.854 228.179-117.063-148.555c-4.025-14.042-16.986-24.349-32.309-24.349h-208.964c-15.323 0-28.284 10.306-32.309 24.349l-117.064 148.555c-1.651 2.096-2.396 4.765-2.07 7.412.326 2.648 1.697 5.056 3.808 6.688l78.163 60.443c1.819 1.406 3.973 2.09 6.111 2.089 2.912 0 5.798-1.267 7.771-3.699l21.988-27.097v172.709c0 5.522 4.478 10 10 10h256.168c5.522 0 10-4.478 10-10v-172.709l21.988 27.097c1.974 2.433 4.857 3.699 7.771 3.699 2.139 0 4.292-.683 6.111-2.089l78.163-60.443c2.11-1.633 3.481-4.04 3.808-6.688.326-2.648-.419-5.317-2.071-7.412zm-135.77-139.314v185.886h-17.019c-5.522 0-10 4.478-10 10s4.478 10 10 10h17.019v20.903h-236.168v-20.903h128.737c5.522 0 10-4.478 10-10s-4.478-10-10-10h-101.394l163.667-199.476h31.556c7.499 0 13.602 6.097 13.602 13.59zm-113.116 246.789h22.746v26.293h-22.746zm42.746 0h22.747v46.825h-22.747zm-.847-260.379-47.477 57.936-46.683-57.936zm-164.951 13.59c0-7.493 6.103-13.59 13.603-13.59h31.504l59.417 73.74-103.038 125.736h-1.486zm-51.363 192.061-62.453-48.295 93.815-119.052v128.698zm287.531 155.798h-236.168v-101.07h103.052v36.293c0 5.522 4.478 10 10 10h32.746v10.532c0 5.522 4.478 10 10 10h42.747c5.522 0 10-4.478 10-10v-56.825h27.623zm51.363-155.798-31.363-38.649v-128.698l93.815 119.052z" data-original="#000000" class="active-path" data-old_color="#000000" fill="#A4A6B3"/></g></g></g> </svg>
